<?xml version="1.0" encoding="utf-8"?>
<!-- Generator: Adobe Illustrator 25.0.0, SVG Export Plug-In . SVG Version: 6.00 Build 0)  -->
<svg version="1.1" id="Layer_1" xmlns="http://www.w3.org/2000/svg" xmlns:xlink="http://www.w3.org/1999/xlink" x="0px" y="0px"
	 viewBox="0 0 841.89 595.28" style="enable-background:new 0 0 841.89 595.28;" xml:space="preserve">
<style type="text/css">
	.st0{enable-background:new    ;}
	.st1{clip-path:url(#SVGID_2_);}
	.st2{fill:#FFFFFF;}
	.st3{clip-path:url(#SVGID_4_);}
	.st4{clip-path:url(#SVGID_6_);}
	.st5{clip-path:url(#SVGID_8_);}
	.st6{fill:#FFFFFF;stroke:#000000;stroke-width:12;stroke-miterlimit:10;}
	.st7{clip-path:url(#SVGID_10_);}
	.st8{clip-path:url(#SVGID_12_);}
	.st9{clip-path:url(#SVGID_14_);}
	.st10{clip-path:url(#SVGID_16_);}
</style>
<g>
	<g>
		<g class="st0">
			<defs>
				<polygon id="SVGID_1_" class="st0" points="149.55,361.27 149.94,152.81 632.34,85.01 631.95,293.47 				"/>
			</defs>
			<clipPath id="SVGID_2_">
				<use xlink:href="#SVGID_1_"  style="overflow:visible;"/>
			</clipPath>
			<g class="st1">
				<polyline points="621.64,98.04 160.6,162.83 160.26,348.23 621.3,283.44 621.64,98.04 				"/>
				<path class="st2" d="M160.26,348.23l0.34-185.4l461.04-64.79l-0.34,185.4L160.26,348.23 M632.34,85.01l-482.4,67.8l-0.39,208.46
					l482.4-67.8L632.34,85.01"/>
			</g>
		</g>
	</g>
	<g>
		<g class="st0">
			<defs>
				<polygon id="SVGID_3_" class="st0" points="209.55,510.26 209.94,301.8 692.34,234.01 691.95,442.47 				"/>
			</defs>
			<clipPath id="SVGID_4_">
				<use xlink:href="#SVGID_3_"  style="overflow:visible;"/>
			</clipPath>
			<g class="st3">
				<polyline class="st2" points="681.64,247.04 220.6,311.84 220.26,497.24 681.3,432.44 681.64,247.04 				"/>
				<path d="M220.26,497.24l0.34-185.4l461.04-64.79l-0.34,185.4L220.26,497.24 M692.34,234.01l-482.4,67.8l-0.39,208.46l482.4-67.8
					L692.34,234.01"/>
			</g>
		</g>
	</g>
	<g>
		<g class="st0">
			<defs>
				<polygon id="SVGID_5_" class="st0" points="211.95,267.15 212.06,206.58 569.7,156.32 569.59,216.89 				"/>
			</defs>
			<clipPath id="SVGID_6_">
				<use xlink:href="#SVGID_5_"  style="overflow:visible;"/>
			</clipPath>
			<g class="st4">
				<path class="st2" d="M230.47,238.55c2.56-7.58,5.24-15.6,7.97-23.39l0.18-0.02l7.38,21.23L230.47,238.55 M242.5,202.3
					l-2.95,1.21l-17.89,49.18c-3.02,8.38-4.21,9.16-9.71,10.85l0,2.57l18.7-2.63l0-2.57c-6.41,0.17-7.09-0.78-5.26-6.48
					c1.08-3.7,2.22-7.35,3.65-11.65l18.19-2.56c1.81,4.88,3.33,9.13,4.51,12.51c1.13,3.45,0.39,4.35-4.88,5.89l0,2.57l21.43-3.01
					l0-2.57c-5.5,0.16-6.69-0.65-9.39-8.16C253.32,232.52,247.91,217.39,242.5,202.3"/>
				<path class="st2" d="M304.76,213.43c-1.31,0.43-3.34,1.14-5.84,1.68c-2.55,0.72-5.55,1.45-7.93,1.85l0,2.14l3,0.13
					c2.71,0.11,3.45,0.55,3.44,5.45l-0.04,20.62c-2.72,3.14-5.73,4.78-8.67,5.2c-3.74,0.53-7.25-1.31-7.24-8.77l0.02-12.05
					c0.01-5.94,0.02-10.22,0.25-13c-1.47,0.45-3.97,1.22-6.35,1.87c-2.39,0.58-4.66,1.2-6.35,1.51l0,2.14l2.27,0.3
					c2.15,0.25,2.83,0.58,2.82,5.47l-0.03,17.08c-0.02,9.61,4.73,12.73,10.63,11.9c2.38-0.33,4.2-1.39,6.69-3.21
					c2.39-1.87,4.03-3.63,5.96-5.43l-0.01,6.36l0.57,0.41c1.76-0.74,4.03-1.67,6.36-2.67c2.32-0.93,4.7-1.82,6.64-2.33l0-2.39
					l-2.27,0.19c-3.29,0.22-3.97-0.3-3.96-4.95L304.76,213.43"/>
				<path class="st2" d="M324.85,198.49l-6.2,7.11l-0.01,6.48l-3.8,0.53l-2.33,3.02l0.39,0.98l5.73-0.8l-0.05,25.7
					c-0.01,7.22,3.1,10.21,8.71,9.42c0.74-0.1,2.04-0.6,3.57-1.73l5.85-4l-0.73-2.34c-1.25,0.85-3.13,1.97-5.11,2.25
					c-2.1,0.29-4.99-0.53-4.97-7.75l0.04-22.57l8.84-1.24c1.14-0.96,1.42-2.95,0.58-3.81l-9.41,1.32l0.02-12.48L324.85,198.49"/>
				<path class="st2" d="M359.68,243.27c-6.8,0.96-11.32-6.67-11.3-17.99c0.02-10.1,4.56-16.05,9.43-16.74l0.11-0.02
					c7.09-1,11.04,6.64,11.02,17.35C368.92,238.42,364.55,242.59,359.68,243.27 M358.9,205.39l-0.06,0.01
					c-7.99,1.12-19.12,9.54-19.14,24.16c-0.02,9.85,6.99,18.66,19.07,16.96c8.56-1.2,18.77-9.49,18.8-23.93
					C377.59,211.75,369.67,203.88,358.9,205.39"/>
				<path class="st2" d="M395.35,199.97c-3.97,2.33-8.68,4.15-12.31,5.27l0,2.27c4.82,0.12,5.1,0.63,5.09,6.32l-0.03,18.17
					c-0.01,5.88-0.8,6.54-6.25,7.85l0,2.39l18.14-2.55l0-2.39c-3.85,0-4.59-0.45-4.58-6.2l0.04-20.86c2.56-2.5,5.68-5.21,8.85-5.65
					c4.82-0.68,7.14,2.42,7.13,9.15l-0.03,15.11c-0.01,5.87-0.75,6.41-5.8,7.66l0,2.39l18.54-2.61l0-2.39
					c-4.59,0.1-5.38-0.34-5.37-5.97l0.03-17.2c0-1.59-0.11-2.61-0.22-3.69c3.18-3.2,6.24-5.35,8.96-5.73
					c4.87-0.68,7.24,2.6,7.23,9.32l-0.03,14.44c-0.01,6.36-0.97,6.93-5.68,8.14l0,2.39l18.48-2.6l0-2.39
					c-4.88,0.01-5.45-0.15-5.43-6.08l0.03-16.89c0.02-8.99-4.28-13.34-10.96-12.4c-2.39,0.34-4.54,1.68-6.36,3.16
					c-2.05,1.76-4.43,3.74-6.92,6.05c-1.75-4.34-5.38-6.58-9.4-6.02c-2.67,0.37-4.7,1.64-6.98,3.43c-2.55,2.01-4.36,3.92-6.18,5.46
					L395.35,199.97"/>
				<path class="st2" d="M465.97,225.89c-2.49,0.35-5.78-1.27-5.77-5.98c0.01-3.3,1.83-5.33,5.11-7.32c1.76-1.1,5.16-3.29,6.86-4.46
					l-0.03,13.95C470.68,223.88,467.96,225.61,465.97,225.89 M468.36,190.01c-4.7,1.64-10.44,5.88-12.88,8.11
					c-1.65,1.45-2.73,2.71-2.73,4.06c0,2.14,2.2,3.66,3.85,3.43c1.31-0.18,2.21-0.92,2.73-2.58c0.74-2.98,1.48-5.1,2.56-6.42
					c0.85-1.1,2.1-1.89,3.58-2.09c4.03-0.57,6.74,2.48,6.73,8.9l0,1.6c-1.81,1.91-7.66,5.04-13.04,7.64
					c-4.6,2.24-6.87,5.24-6.88,9.71c-0.01,5.63,4.12,10.43,10.41,9.55c2.39-0.34,6.36-4.14,9.77-6.94c0.39,1.35,0.9,2.5,2.03,3.5
					c0.91,0.86,2.72,1.4,4.31,1.18l7.43-5.76l-0.84-2.27c-0.91,0.67-2.04,1.26-3.01,1.4c-1.53,0.22-3-0.93-2.99-4.9l0.03-16.09
					c0.01-4.77-0.89-8.38-4-10.75C473.46,189.96,471.03,189.63,468.36,190.01"/>
				<path class="st2" d="M498.88,174.03l-6.19,7.11l-0.01,6.48l-3.8,0.53l-2.33,3.02l0.39,0.98l5.73-0.8l-0.05,25.7
					c-0.01,7.22,3.1,10.21,8.71,9.42c0.74-0.1,2.04-0.6,3.57-1.73l5.85-4l-0.73-2.34c-1.25,0.85-3.13,1.97-5.11,2.25
					c-2.1,0.29-4.99-0.53-4.97-7.75l0.04-22.57l8.84-1.24c1.14-0.96,1.42-2.95,0.58-3.81l-9.41,1.32l0.02-12.48L498.88,174.03"/>
				<path class="st2" d="M527.54,181.51c-3.8,2.12-8.06,3.76-12.59,5.19l0,2.14c4.99,0.22,5.27,0.6,5.26,6.24l-0.03,17.98
					c-0.01,6.24-0.63,6.88-5.91,8.17l0,2.39l19.16-2.69l0-2.39c-5.38,0.08-5.95-0.32-5.94-6.5L527.54,181.51 M523.44,164.83
					c-2.5,0.35-4.66,2.8-4.66,5.67c0,2.58,2.15,4.53,4.53,4.19c2.6-0.37,4.54-2.89,4.54-5.47
					C527.86,166.35,525.93,164.48,523.44,164.83"/>
				<path class="st2" d="M559.52,177.2l-0.11,0.02c-3.24,0.45-8.34,2.58-12.99,6.9c-5.68,5.33-8.58,11.79-8.6,18.58
					c-0.02,9.48,6.32,17.77,17.32,16.23c4.93-0.69,10.66-5.47,14.47-11.33l-1.41-1.82c-3.8,4.33-6.63,5.76-10.15,6.26
					c-4.53,0.64-12.81-2.18-12.79-14.47c0.02-9.48,4.79-14.68,10.01-15.42c3-0.42,5.89,0.4,8.61,2.64c0.74,0.69,1.13,0.89,1.64,0.82
					c1.07-0.15,2.95-2.44,2.96-4.52c0-0.98-0.23-1.74-1.36-2.56C565.75,177.42,562.97,176.71,559.52,177.2"/>
			</g>
		</g>
	</g>
	<g>
		<g class="st0">
			<defs>
				<polygon id="SVGID_7_" class="st0" points="359.84,419.39 359.97,345.41 533.38,321.03 533.24,395.02 				"/>
			</defs>
			<clipPath id="SVGID_8_">
				<use xlink:href="#SVGID_7_"  style="overflow:visible;"/>
			</clipPath>
			<g class="st5">
				<path d="M366.67,365.33l-2.15,0.3c-0.95,5-2.53,12.26-3.9,17.24l2.72,0.85l1.58-3.54c3.1-6.85,4.81-8.79,12.48-9.87
					c2.22-0.31,5.45-0.77,9.03-1.27c-8.84,16.39-17.39,31.66-26.59,47.25l0.79,1.67l35.89-5.04c1.72-4.49,3.45-10.3,5.03-15.32
					l-2.71-1.09l-1.44,2.91c-4.17,7.61-6.61,10.28-14.63,11.41l-10.1,1.42c8.7-16.22,17.17-31.63,25.87-47.23l-0.78-1.59l-25,3.51
					C368.81,367.5,367.31,367.01,366.67,365.33"/>
				<path d="M422.32,358.43c-4.8,2.69-10.17,4.76-15.91,6.57l-0.01,2.71c6.3,0.27,6.66,0.76,6.65,7.87l-0.04,22.73
					c-0.01,7.89-0.8,8.69-7.47,10.32l-0.01,3.02l24.21-3.4l0.01-3.02c-6.8,0.11-7.52-0.41-7.5-8.22L422.32,358.43 M417.14,337.37
					c-3.16,0.44-5.88,3.52-5.88,7.16c-0.01,3.24,2.7,5.72,5.72,5.3c3.29-0.46,5.73-3.67,5.74-6.91
					C422.71,339.28,420.28,336.93,417.14,337.37"/>
				<path d="M451.55,354.17c-4.95,2.86-10.47,5.1-15.56,6.67l-0.01,2.86c5.59,0.29,6.3,0.65,6.29,8l-0.04,22.73
					c-0.01,7.57-0.58,8.2-7.68,10.12l-0.01,3.02l23.64-3.32l0.01-3.02c-6.16,0.17-6.73-0.21-6.71-7.94l0.05-26.14
					c3.23-3.31,7.17-6.57,11.18-7.13c6.52-0.92,9.45,3.38,9.44,11.27l-0.03,18.4c-0.01,7.96-0.74,8.99-6.83,10.55l-0.01,3.02
					l22.78-3.2l0.01-3.02c-6.16,0.02-6.81-0.2-6.79-7.93l0.04-21.1c0.02-11.21-5.33-16.87-13.79-15.69
					c-3.16,0.44-5.81,2.05-8.82,4.56c-2.73,2.32-5.02,4.42-7.17,6.42L451.55,354.17"/>
				<path d="M503.73,365.31c1.52-9.64,6.11-14.69,10.7-15.33l0.07-0.01c5.59-0.79,9.02,4.22,9.01,10.17c0,1.47-0.65,2.17-2.51,2.51
					C515.04,363.72,509.38,364.51,503.73,365.31 M517.01,345.36l-0.07,0.01c-5.66,0.79-11.46,4.85-16.06,10.91
					c-4.3,5.64-6.82,12.78-6.84,20.29c-0.02,12.6,7.69,22.88,20.8,21.04c3.44-0.48,11.11-3.57,18-13.9l-1.78-2.22
					c-3.88,4.41-7.96,6.76-12.33,7.38c-7.38,1.04-15.32-4.04-15.51-18.61c12.32-2.2,25.64-5.23,27.58-5.81
					c1.93-0.74,2.51-1.82,2.51-3.98C533.33,351.49,526.11,344.08,517.01,345.36"/>
			</g>
		</g>
	</g>
	<line class="st6" x1="164.95" y1="343.64" x2="213.95" y2="504.64"/>
</g>
<g>
	<g class="st0">
		<defs>
			<polygon id="SVGID_9_" class="st0" points="149.16,1004.19 149.55,795.72 631.96,727.93 631.57,936.39 			"/>
		</defs>
		<clipPath id="SVGID_10_">
			<use xlink:href="#SVGID_9_"  style="overflow:visible;"/>
		</clipPath>
		<g class="st7">
			<polyline class="st2" points="621.25,740.95 160.21,805.75 159.87,991.16 620.91,926.36 621.25,740.95 			"/>
			<path d="M159.87,991.16l0.34-185.41l461.04-64.79l-0.34,185.41L159.87,991.16 M631.96,727.93l-482.41,67.8l-0.39,208.46
				l482.41-67.8L631.96,727.93"/>
		</g>
	</g>
</g>
<g>
	<g class="st0">
		<defs>
			<polygon id="SVGID_11_" class="st0" points="209.16,1153.19 209.55,944.73 691.95,876.93 691.57,1085.39 			"/>
		</defs>
		<clipPath id="SVGID_12_">
			<use xlink:href="#SVGID_11_"  style="overflow:visible;"/>
		</clipPath>
		<g class="st8">
			<polyline points="691.95,876.93 209.55,944.73 209.16,1153.19 691.57,1085.39 691.95,876.93 			"/>
		</g>
	</g>
</g>
<g>
	<g class="st0">
		<defs>
			<polygon id="SVGID_13_" class="st0" points="211.56,910.07 211.67,849.49 569.31,799.23 569.2,859.8 			"/>
		</defs>
		<clipPath id="SVGID_14_">
			<use xlink:href="#SVGID_13_"  style="overflow:visible;"/>
		</clipPath>
		<g class="st9">
			<path d="M230.08,881.47c2.56-7.58,5.24-15.6,7.97-23.39l0.18-0.02l7.38,21.23L230.08,881.47 M242.11,845.22l-2.95,1.21
				l-17.89,49.19c-3.02,8.38-4.21,9.16-9.71,10.85l0,2.57l18.7-2.63l0-2.57c-6.41,0.17-7.09-0.78-5.26-6.48
				c1.08-3.7,2.22-7.35,3.65-11.65l18.19-2.56c1.81,4.88,3.33,9.14,4.51,12.51c1.13,3.45,0.39,4.35-4.88,5.89l0,2.57l21.43-3.01
				l0-2.57c-5.5,0.16-6.69-0.65-9.39-8.16C252.94,875.44,247.52,860.3,242.11,845.22"/>
			<path d="M304.37,856.35c-1.31,0.43-3.34,1.14-5.84,1.68c-2.55,0.73-5.55,1.45-7.93,1.85l0,2.14l3,0.13
				c2.71,0.1,3.45,0.55,3.44,5.45L297,888.21c-2.72,3.13-5.73,4.78-8.67,5.2c-3.74,0.53-7.25-1.31-7.24-8.77l0.02-12.06
				c0.01-5.93,0.02-10.21,0.25-13c-1.47,0.46-3.97,1.23-6.35,1.87c-2.39,0.59-4.66,1.21-6.35,1.51l0,2.14l2.27,0.3
				c2.15,0.24,2.83,0.58,2.82,5.47l-0.03,17.07c-0.02,9.61,4.73,12.73,10.63,11.9c2.38-0.33,4.2-1.39,6.69-3.21
				c2.39-1.87,4.03-3.62,5.96-5.42l-0.01,6.36l0.57,0.4c1.76-0.73,4.03-1.66,6.36-2.67c2.32-0.94,4.7-1.82,6.64-2.34l0-2.39
				l-2.27,0.2c-3.29,0.22-3.97-0.3-3.96-4.95L304.37,856.35"/>
			<path d="M324.47,841.41l-6.2,7.11l-0.01,6.48l-3.8,0.53l-2.33,3.02l0.39,0.99l5.73-0.8l-0.05,25.7
				c-0.01,7.22,3.1,10.21,8.71,9.42c0.74-0.1,2.04-0.59,3.57-1.72l5.85-4l-0.73-2.34c-1.25,0.84-3.13,1.97-5.11,2.25
				c-2.1,0.29-4.99-0.53-4.97-7.75l0.04-22.57l8.84-1.24c1.14-0.96,1.42-2.96,0.58-3.81l-9.41,1.32l0.02-12.48L324.47,841.41"/>
			<path d="M359.29,886.18c-6.8,0.96-11.32-6.66-11.3-17.98c0.02-10.1,4.56-16.06,9.43-16.75l0.11-0.02
				c7.09-1,11.04,6.65,11.02,17.35C368.53,881.34,364.16,885.5,359.29,886.18 M358.51,848.31l-0.06,0.01
				c-7.99,1.12-19.12,9.53-19.14,24.16c-0.02,9.85,6.99,18.65,19.07,16.95c8.56-1.2,18.77-9.48,18.8-23.92
				C377.2,854.68,369.28,846.8,358.51,848.31"/>
			<path d="M394.96,842.88c-3.97,2.34-8.68,4.16-12.31,5.28l0,2.27c4.82,0.12,5.1,0.62,5.09,6.31l-0.03,18.17
				c-0.01,5.88-0.8,6.54-6.25,7.85l0,2.39l18.14-2.55l0-2.39c-3.86-0.01-4.6-0.45-4.59-6.21l0.04-20.86c2.56-2.5,5.68-5.2,8.85-5.64
				c4.82-0.68,7.14,2.42,7.13,9.15L411,871.76c-0.01,5.88-0.75,6.41-5.8,7.67l0,2.39l18.54-2.61l0-2.39
				c-4.59,0.09-5.38-0.34-5.37-5.98l0.03-17.19c0-1.59-0.11-2.61-0.22-3.7c3.18-3.2,6.24-5.34,8.96-5.72
				c4.87-0.68,7.24,2.59,7.23,9.32l-0.03,14.44c-0.01,6.36-0.97,6.92-5.68,8.14l0,2.39l18.48-2.6l0-2.39
				c-4.88,0.01-5.45-0.15-5.43-6.09l0.03-16.89c0.02-8.99-4.28-13.34-10.97-12.4c-2.38,0.33-4.54,1.67-6.35,3.16
				c-2.05,1.75-4.43,3.73-6.92,6.05c-1.75-4.34-5.38-6.58-9.4-6.02c-2.67,0.37-4.7,1.64-6.98,3.43c-2.55,2.01-4.36,3.92-6.18,5.46
				L394.96,842.88"/>
			<path d="M465.59,868.8c-2.49,0.35-5.78-1.26-5.77-5.97c0.01-3.3,1.82-5.34,5.11-7.33c1.76-1.1,5.16-3.29,6.86-4.45L471.77,865
				C470.29,866.8,467.57,868.52,465.59,868.8 M467.97,832.93c-4.7,1.64-10.44,5.87-12.88,8.11c-1.65,1.45-2.73,2.7-2.73,4.05
				c0,2.14,2.2,3.67,3.85,3.44c1.31-0.18,2.21-0.92,2.73-2.59c0.74-2.97,1.48-5.1,2.56-6.41c0.86-1.1,2.1-1.89,3.58-2.09
				c4.03-0.57,6.74,2.48,6.73,8.9l0,1.59c-1.81,1.91-7.66,5.05-13.04,7.64c-4.6,2.24-6.87,5.25-6.88,9.71
				c-0.01,5.63,4.12,10.43,10.42,9.55c2.38-0.33,6.35-4.13,9.76-6.94c0.39,1.35,0.9,2.51,2.03,3.51c0.91,0.85,2.72,1.39,4.31,1.17
				l7.43-5.76l-0.84-2.27c-0.91,0.68-2.04,1.27-3.01,1.41c-1.53,0.22-3-0.93-2.99-4.9l0.03-16.09c0.01-4.77-0.89-8.38-4-10.75
				C473.08,832.89,470.64,832.55,467.97,832.93"/>
			<path d="M498.49,816.95l-6.19,7.11l-0.01,6.48l-3.8,0.53l-2.33,3.02l0.39,0.99l5.73-0.8l-0.05,25.7
				c-0.01,7.22,3.1,10.21,8.71,9.42c0.74-0.1,2.04-0.59,3.57-1.72l5.85-4l-0.73-2.34c-1.25,0.84-3.13,1.97-5.11,2.25
				c-2.1,0.29-4.99-0.53-4.97-7.75l0.04-22.57l8.84-1.24c1.14-0.96,1.42-2.96,0.58-3.81l-9.41,1.32l0.02-12.48L498.49,816.95"/>
			<path d="M527.16,824.42c-3.8,2.12-8.06,3.77-12.59,5.2l0,2.14c4.99,0.22,5.27,0.61,5.26,6.24l-0.03,17.99
				c-0.01,6.24-0.63,6.87-5.91,8.17l0,2.39l19.16-2.69l0-2.39c-5.38,0.08-5.95-0.33-5.94-6.5L527.16,824.42 M523.05,807.75
				c-2.5,0.35-4.65,2.79-4.66,5.67c0,2.57,2.14,4.53,4.52,4.2c2.6-0.37,4.54-2.9,4.54-5.47
				C527.47,809.27,525.55,807.4,523.05,807.75"/>
			<path d="M559.13,820.12l-0.11,0.02c-3.24,0.45-8.34,2.57-12.99,6.9c-5.68,5.33-8.58,11.79-8.6,18.58
				c-0.02,9.48,6.32,17.77,17.32,16.22c4.93-0.69,10.66-5.47,14.47-11.33l-1.41-1.82c-3.8,4.33-6.63,5.76-10.15,6.26
				c-4.53,0.64-12.81-2.18-12.79-14.47c0.02-9.48,4.79-14.68,10.01-15.42c3-0.42,5.89,0.4,8.61,2.64c0.74,0.69,1.13,0.88,1.64,0.81
				c1.07-0.15,2.95-2.43,2.96-4.51c0-0.98-0.23-1.74-1.36-2.56C565.36,820.34,562.59,819.63,559.13,820.12"/>
		</g>
	</g>
</g>
<g>
	<g class="st0">
		<defs>
			<polygon id="SVGID_15_" class="st0" points="359.45,1062.3 359.58,988.32 532.99,963.95 532.86,1037.93 			"/>
		</defs>
		<clipPath id="SVGID_16_">
			<use xlink:href="#SVGID_15_"  style="overflow:visible;"/>
		</clipPath>
		<g class="st10">
			<path class="st2" d="M366.28,1008.24l-2.15,0.3c-0.95,5.01-2.53,12.26-3.9,17.25l2.72,0.85l1.58-3.55
				c3.1-6.85,4.81-8.78,12.48-9.86c2.22-0.31,5.45-0.77,9.03-1.27c-8.84,16.39-17.39,31.66-26.59,47.25l0.79,1.66l35.89-5.04
				c1.72-4.49,3.45-10.3,5.04-15.32l-2.72-1.08l-1.44,2.9c-4.17,7.62-6.61,10.28-14.63,11.41l-10.1,1.42
				c8.7-16.21,17.17-31.63,25.87-47.23l-0.78-1.58l-25,3.51C368.42,1010.42,366.92,1009.93,366.28,1008.24"/>
			<path class="st2" d="M421.93,1001.36c-4.8,2.68-10.17,4.75-15.91,6.56l-0.01,2.71c6.3,0.28,6.66,0.77,6.65,7.88l-0.04,22.73
				c-0.01,7.89-0.8,8.69-7.47,10.32l-0.01,3.01l24.21-3.4l0.01-3.01c-6.8,0.1-7.52-0.41-7.5-8.22L421.93,1001.36 M416.75,980.29
				c-3.16,0.44-5.88,3.53-5.89,7.16c-0.01,3.25,2.71,5.73,5.72,5.31c3.29-0.46,5.73-3.67,5.74-6.92
				C422.32,982.21,419.89,979.84,416.75,980.29"/>
			<path class="st2" d="M451.16,997.09c-4.95,2.86-10.47,5.1-15.56,6.66l-0.01,2.86c5.59,0.29,6.3,0.66,6.29,8.01l-0.04,22.72
				c-0.01,7.58-0.59,8.2-7.68,10.13l-0.01,3.01l23.64-3.32l0.01-3.01c-6.16,0.17-6.73-0.22-6.71-7.95l0.05-26.13
				c3.23-3.31,7.17-6.57,11.18-7.14c6.51-0.92,9.44,3.39,9.43,11.28l-0.03,18.4c-0.01,7.96-0.74,8.99-6.83,10.55l-0.01,3.01
				l22.78-3.2l0.01-3.01c-6.16,0.01-6.81-0.21-6.79-7.94l0.04-21.1c0.02-11.21-5.33-16.87-13.79-15.68
				c-3.16,0.44-5.81,2.05-8.82,4.56c-2.73,2.32-5.02,4.41-7.17,6.42L451.16,997.09"/>
			<path class="st2" d="M503.34,1008.23c1.52-9.64,6.11-14.7,10.7-15.34l0.07-0.01c5.59-0.79,9.02,4.22,9.01,10.18
				c0,1.47-0.65,2.17-2.51,2.51C514.66,1006.64,508.99,1007.44,503.34,1008.23 M516.62,988.28l-0.07,0.01
				c-5.66,0.79-11.46,4.85-16.06,10.91c-4.3,5.63-6.82,12.78-6.84,20.28c-0.02,12.61,7.69,22.88,20.8,21.04
				c3.44-0.48,11.11-3.57,18-13.89l-1.78-2.22c-3.88,4.41-7.96,6.76-12.33,7.38c-7.38,1.04-15.32-4.04-15.51-18.62
				c12.32-2.19,25.64-5.23,27.58-5.8c1.93-0.74,2.51-1.82,2.51-3.99C532.94,994.41,525.72,987,516.62,988.28"/>
		</g>
	</g>
</g>
<line class="st6" x1="154.56" y1="999.56" x2="213.56" y2="1147.56"/>
</svg>
